<?xml version="1.0" standalone="no"?>
<!DOCTYPE svg PUBLIC "-//W3C//DTD SVG 20010904//EN"
 "http://www.w3.org/TR/2001/REC-SVG-20010904/DTD/svg10.dtd">
<svg version="1.0" xmlns="http://www.w3.org/2000/svg"
 width="700.000000pt" height="700.000000pt" viewBox="0 0 700.000000 700.000000"
 preserveAspectRatio="xMidYMid meet">
<metadata>
Created by potrace 1.14, written by Peter Selinger 2001-2017
</metadata>
<g transform="translate(0.000000,700.000000) scale(0.100000,-0.100000)"
fill="#000000" stroke="none">
<path d="M3378 6415 c-2 -2 -46 -5 -98 -9 -52 -3 -117 -8 -145 -12 -49 -6
-271 -47 -310 -57 -11 -3 -33 -8 -50 -12 -217 -51 -536 -183 -760 -316 -335
-198 -658 -492 -881 -804 -117 -163 -244 -388 -309 -545 -14 -36 -32 -78 -40
-95 -40 -88 -121 -364 -144 -490 -18 -96 -20 -107 -30 -175 -24 -149 -32 -444
-18 -630 44 -594 293 -1197 681 -1655 59 -70 250 -263 317 -320 377 -324 836
-551 1315 -649 65 -14 142 -28 169 -31 28 -4 61 -8 75 -11 134 -23 592 -23
705 1 11 2 39 7 63 9 173 21 518 112 647 171 17 7 53 23 82 34 126 49 333 162
485 265 462 310 848 781 1061 1296 39 94 114 314 121 355 3 15 10 41 15 58 13
42 37 158 55 277 35 221 40 570 11 790 -13 91 -37 227 -50 280 -8 30 -16 66
-19 80 -16 84 -100 332 -148 440 -77 172 -193 377 -287 510 -320 451 -755 804
-1240 1009 -118 49 -152 63 -161 65 -3 1 -41 14 -85 28 -125 41 -259 75 -390
99 -122 21 -134 23 -265 35 -72 6 -367 13 -372 9z m299 -590 c56 -3 108 -7
115 -10 7 -2 32 -6 55 -9 22 -3 52 -8 65 -10 12 -3 34 -8 48 -10 57 -9 162
-37 253 -66 893 -286 1526 -1080 1612 -2020 6 -71 7 -363 1 -395 -2 -11 -7
-51 -11 -89 -7 -73 -13 -111 -20 -136 -2 -8 -7 -31 -10 -50 -3 -19 -8 -43 -11
-52 -3 -9 -7 -26 -9 -39 -13 -64 -75 -251 -113 -339 -140 -324 -314 -572 -566
-809 -333 -315 -823 -547 -1270 -602 -45 -5 -97 -12 -116 -15 -53 -7 -326 -6
-405 1 -938 87 -1726 719 -2019 1620 -37 114 -63 232 -86 380 -20 134 -29 444
-16 525 3 14 7 52 11 85 14 144 74 383 140 560 99 267 303 579 525 803 390
394 948 647 1494 678 61 4 112 7 113 8 3 3 85 -1 220 -9z"/>
<path d="M2254 4669 c-84 -15 -163 -79 -205 -165 -31 -65 -32 -168 -1 -238 39
-88 74 -111 447 -297 l348 -174 71 1 c121 1 211 57 264 163 34 70 36 170 4
241 -39 89 -75 113 -433 292 -184 91 -345 170 -359 174 -36 10 -89 11 -136 3z"/>
<path d="M4558 4640 c-116 -44 -642 -317 -677 -351 -186 -179 -56 -492 205
-494 l71 0 326 163 c180 89 343 176 362 193 19 17 47 57 64 89 26 52 29 69 27
132 -3 81 -26 136 -78 194 -71 78 -204 111 -300 74z"/>
<path d="M3405 2899 c-282 -20 -532 -95 -765 -230 -61 -35 -208 -144 -233
-173 -162 -185 -30 -476 217 -479 73 -1 140 27 229 96 81 61 195 119 302 155
337 111 704 54 987 -152 103 -76 158 -99 233 -99 73 0 135 25 194 79 138 124
121 337 -36 455 -65 49 -152 109 -157 109 -3 0 -28 14 -57 31 -124 73 -400
171 -524 185 -27 4 -53 8 -56 10 -4 2 -56 6 -115 10 -60 3 -113 6 -119 7 -5 2
-50 0 -100 -4z"/>
</g>
</svg>
